<svg width="16" height="16" viewBox="0 0 16 16" fill="none" xmlns="http://www.w3.org/2000/svg">
<g clip-path="url(#clip0_47_272)">
<path d="M14.6668 8C14.6668 11.6819 11.6821 14.6667 8.00016 14.6667M14.6668 8C14.6668 4.3181 11.6821 1.33333 8.00016 1.33333M14.6668 8H1.3335M8.00016 14.6667C4.31826 14.6667 1.3335 11.6819 1.3335 8M8.00016 14.6667C6.28832 12.8692 5.3335 10.4822 5.3335 8C5.3335 5.51783 6.28832 3.13077 8.00016 1.33333M8.00016 14.6667C9.71201 12.8692 10.6668 10.4822 10.6668 8C10.6668 5.51783 9.71201 3.13077 8.00016 1.33333M1.3335 8C1.3335 4.3181 4.31826 1.33333 8.00016 1.33333" stroke="white" stroke-width="1.2" stroke-linecap="round" stroke-linejoin="round"/>
</g>
<defs>
<clipPath id="clip0_47_272">
<rect width="16" height="16" fill="white"/>
</clipPath>
</defs>
</svg>
