<svg width="104" height="18" viewBox="0 0 104 18" fill="none" xmlns="http://www.w3.org/2000/svg">
<path d="M19.4684 0.45L16.1289 9.23684L11.6763 0L7.22368 9.23684L3.95526 0.45H0L6.77368 18L11.6763 7.93421L16.5316 18L23.3763 0.45H19.4684Z" fill="white"/>
<path d="M37.3735 10.7526C37.2551 6.65526 33.9867 4.42895 30.7183 4.42895C28.3262 4.42895 23.7788 5.82632 23.7788 11.0605C23.7788 16.2947 28.2314 17.7158 30.7183 17.7158C34.4604 17.7158 36.1656 15.4421 36.6867 14.7553L33.9867 13.1921C33.5841 13.6421 32.6367 14.6842 30.7183 14.6842C30.0314 14.6842 27.663 14.4474 27.2367 12.3632H37.3025C37.3025 12.3395 37.3735 11.7237 37.3735 10.7526ZM27.3314 9.87632C27.4735 8.57368 28.7051 7.43684 30.6946 7.43684C32.4235 7.43684 33.5604 8.71579 33.7025 9.87632H27.3314Z" fill="white"/>
<path d="M43.6024 6.3V4.59474H40.1445V17.3605H43.6024V11.7474C43.6024 7.86316 47.1314 7.69737 47.9603 7.76842V4.38158C47.0603 4.35789 44.9051 4.59474 43.6024 6.3Z" fill="white"/>
<path d="M59.4708 4.61842V5.94474C58.8314 5.0921 57.4577 4.33421 55.5866 4.33421C51.5603 4.33421 49.1919 7.31842 49.1919 10.9895C49.1919 14.6605 51.5603 17.6447 55.5866 17.6447C57.3866 17.6447 58.9261 16.8158 59.4708 16.0816V17.3605H62.9051V4.61842H59.4708ZM56.1077 14.5895C53.9761 14.5895 52.6024 13.0026 52.6024 10.9895C52.6024 8.90526 53.9051 7.36579 56.1077 7.36579C58.2629 7.36579 59.6129 8.88158 59.6129 10.9895C59.6129 13.2158 58.2629 14.5895 56.1077 14.5895Z" fill="white"/>
<path d="M71.7631 9.49737C71.2184 9.42631 69.3473 9.21316 69.3473 8.36052C69.3473 7.74474 70.3421 7.41316 71.0289 7.41316C72.45 7.41316 73.7052 8.02895 74.6526 8.59737L76.4526 6.22895C74.771 4.97368 73.1605 4.40526 71.1473 4.40526C69.9157 4.40526 65.8894 4.71316 65.8894 8.43158C65.8894 11.6289 69.2052 12.15 70.9579 12.4579C71.621 12.5763 73.421 12.6711 73.421 13.5237C73.421 14.1632 72.6631 14.6605 71.5973 14.6605C70.0578 14.6605 68.471 13.9737 67.4763 13.2868L65.6763 15.7026C66.2447 16.1526 66.8842 16.5789 67.6421 16.9105C70.5315 16.0105 73.4447 15.1579 76.3579 14.3526C76.5236 14.3053 76.6894 14.2579 76.8552 14.2105C76.8789 13.9974 76.9026 13.7605 76.9026 13.5237C76.8552 10.2316 73.9421 9.85263 71.7631 9.49737Z" fill="white"/>
<path d="M81.7344 16.4605C83.1318 17.3842 84.766 17.6921 85.9502 17.6921C89.6923 17.6921 91.3976 15.4184 91.9186 14.7316L91.0423 14.2105C87.916 14.9211 84.8134 15.6553 81.7344 16.4605ZM83.9844 12.3395C86.8502 11.6289 89.716 10.9895 92.5818 10.3737C92.2739 6.51316 89.1239 4.40526 85.9502 4.40526C83.5581 4.40526 79.0107 5.80263 79.0107 11.0368C79.0107 11.9842 79.1528 12.7895 79.4134 13.5C80.4555 13.2158 81.5213 12.9553 82.5634 12.6947L83.9844 12.3395ZM85.9265 7.46053C87.6555 7.46053 88.816 8.73947 88.9344 9.9H82.5634C82.7055 8.57368 83.9371 7.46053 85.9265 7.46053Z" fill="white"/>
<path d="M98.8344 6.3V4.59474H95.3765V9.78158C96.8686 9.47368 98.337 9.18947 99.8291 8.90526C100.942 7.76842 102.648 7.72105 103.192 7.76842V4.38158C102.292 4.35789 100.137 4.59474 98.8344 6.3ZM95.3765 17.3842H98.8344V12.6C97.6738 12.8368 96.537 13.05 95.3765 13.2868V17.3842Z" fill="white"/>
</svg>
